<svg version="1.1" xmlns="http://www.w3.org/2000/svg" viewBox="0 0 1127.5282472653755 100.0000435965402" width="1127.5282472653755" height="100.0000435965402" filter="invert(93%) hue-rotate(180deg)">
  <defs>
    <style class="style-fonts">
      
    </style>
    
  </defs>
  <g stroke-linecap="round"><g transform="translate(10 86.34476427342463) rotate(0 553.7641236326878 0.4530027459733219)"><path d="M0 0 C258.45 3.57, 516.94 3.79, 1107.53 0.91 M0 0 C249.52 1.45, 498.29 1.63, 1107.53 0.91" stroke="#1e1e1e00" stroke-width="4" fill="none"></path></g></g><mask></mask><g stroke-linecap="round" transform="translate(179.76427186092383 10) rotate(0 35.42855398995539 36.57145908900668)"><path d="M48.69 4.03 C54.93 5.86, 60.21 11.45, 63.93 16.77 C67.64 22.08, 70.96 28.61, 70.96 35.93 C70.96 43.25, 68.4 54.95, 63.92 60.66 C59.43 66.37, 50.63 68.62, 44.05 70.2 C37.48 71.78, 30.59 72.6, 24.44 70.16 C18.29 67.72, 10.91 61.6, 7.14 55.55 C3.37 49.51, 1.83 41.1, 1.82 33.88 C1.8 26.67, 2.81 17.66, 7.05 12.26 C11.29 6.86, 18.54 1.61, 27.25 1.46 C35.96 1.31, 52.46 6.97, 59.31 11.37 C66.16 15.77, 68.21 27.09, 68.37 27.86 M57.83 5.82 C63.98 9.94, 68.39 19.12, 70.49 25.57 C72.6 32.01, 72.62 38.28, 70.49 44.49 C68.36 50.7, 63.65 57.75, 57.7 62.82 C51.76 67.9, 41.72 74.44, 34.8 74.95 C27.87 75.46, 21.5 69.86, 16.15 65.89 C10.8 61.93, 5.12 57.55, 2.69 51.15 C0.25 44.75, -0.33 34.5, 1.54 27.48 C3.41 20.46, 8.55 13.65, 13.91 9.03 C19.27 4.4, 26.5 0.35, 33.71 -0.26 C40.93 -0.87, 54.01 3.86, 57.19 5.38 C60.37 6.89, 53.13 7.97, 52.8 8.84" stroke="#1e1e1e" stroke-width="4" fill="none"></path></g><g transform="translate(180.9070679686247 46.57148088727672) rotate(0 34.85713413783492 -4.57144601004461)" stroke="none"><path fill="#1e1e1e" d="M 0,-2.24 Q 0,-2.24 2.29,-2.11 4.59,-1.99 7.44,-2.22 10.29,-2.45 12.24,-2.58 14.18,-2.71 16.23,-3.02 18.27,-3.34 19.52,-3.60 20.76,-3.86 22.18,-4.57 23.60,-5.29 24.72,-5.45 25.84,-5.62 26.96,-5.70 28.07,-5.79 29.89,-6.16 31.71,-6.53 33.49,-6.84 35.27,-7.16 36.81,-7.71 38.35,-8.25 39.50,-8.36 40.66,-8.47 42.45,-8.55 44.24,-8.64 45.62,-8.60 47.00,-8.56 48.40,-9.05 49.79,-9.55 51.55,-9.68 53.30,-9.82 54.85,-10.32 56.40,-10.82 57.66,-11.38 58.91,-11.94 60.39,-12.14 61.88,-12.34 63.41,-12.37 64.94,-12.40 67.32,-12.39 69.70,-12.38 70.22,-12.30 70.74,-12.21 71.20,-11.97 71.67,-11.72 72.03,-11.34 72.39,-10.96 72.61,-10.49 72.83,-10.01 72.89,-9.49 72.95,-8.97 72.83,-8.45 72.72,-7.94 72.45,-7.49 72.18,-7.04 71.78,-6.70 71.38,-6.36 70.90,-6.17 70.41,-5.97 69.89,-5.94 69.36,-5.91 68.86,-6.05 68.35,-6.19 67.92,-6.49 67.48,-6.78 67.17,-7.20 66.85,-7.62 66.68,-8.11 66.51,-8.61 66.51,-9.13 66.51,-9.66 66.68,-10.16 66.84,-10.65 67.16,-11.07 67.48,-11.49 67.91,-11.78 68.34,-12.08 68.85,-12.22 69.35,-12.36 69.88,-12.33 70.40,-12.30 70.89,-12.11 71.38,-11.92 71.78,-11.58 72.18,-11.24 72.45,-10.79 72.72,-10.34 72.83,-9.83 72.95,-9.32 72.89,-8.80 72.83,-8.27 72.61,-7.80 72.39,-7.32 72.03,-6.94 71.67,-6.56 71.21,-6.31 70.75,-6.07 70.23,-5.98 69.71,-5.90 69.71,-5.90 69.71,-5.90 66.47,-5.87 63.23,-5.85 62.18,-6.13 61.12,-6.41 60.14,-5.75 59.16,-5.10 57.68,-4.91 56.19,-4.71 54.93,-4.26 53.67,-3.81 51.78,-3.72 49.89,-3.63 48.51,-3.24 47.14,-2.84 45.72,-2.80 44.31,-2.75 42.67,-2.76 41.04,-2.76 39.71,-2.68 38.39,-2.60 37.08,-2.20 35.78,-1.79 34.37,-1.71 32.95,-1.62 31.36,-1.25 29.76,-0.89 27.97,-0.95 26.19,-1.02 24.89,-1.01 23.59,-1.00 22.44,-0.61 21.30,-0.22 20.08,-0.15 18.86,-0.08 16.65,0.37 14.44,0.84 12.57,0.99 10.69,1.14 7.65,1.57 4.60,1.99 2.30,2.11 0,2.24 -0.26,2.20 -0.53,2.17 -0.78,2.08 -1.04,1.98 -1.26,1.83 -1.48,1.67 -1.66,1.47 -1.84,1.27 -1.96,1.03 -2.09,0.79 -2.16,0.53 -2.22,0.27 -2.22,-0.00 -2.22,-0.27 -2.15,-0.53 -2.09,-0.79 -1.96,-1.03 -1.84,-1.27 -1.66,-1.47 -1.48,-1.67 -1.26,-1.83 -1.04,-1.98 -0.78,-2.08 -0.53,-2.17 -0.26,-2.20 0.00,-2.24 0.00,-2.24 L 0,-2.24 Z"></path></g><g transform="translate(180.9070679686247 55.71432931082586) rotate(0 33.71427263532371 -3.428584507533458)" stroke="none"><path fill="#1e1e1e" d="M 0,-2.52 Q 0,-2.52 1.64,-2.48 3.28,-2.44 4.64,-2.46 5.99,-2.47 8.27,-2.52 10.54,-2.56 11.78,-2.58 13.02,-2.59 15.22,-2.63 17.43,-2.66 19.33,-2.71 21.23,-2.75 22.40,-3.26 23.57,-3.77 25.69,-3.90 27.81,-4.02 29.01,-4.03 30.22,-4.03 31.37,-4.03 32.52,-4.03 34.66,-4.49 36.81,-4.94 38.05,-5.01 39.29,-5.08 40.91,-5.29 42.54,-5.51 44.08,-5.66 45.62,-5.81 46.81,-6.17 48.00,-6.53 49.69,-6.94 51.37,-7.35 52.66,-7.46 53.94,-7.56 55.11,-7.61 56.28,-7.66 57.76,-7.92 59.24,-8.17 60.35,-8.59 61.45,-9.00 64.35,-9.53 67.26,-10.06 67.78,-10.01 68.29,-9.95 68.76,-9.73 69.24,-9.51 69.61,-9.15 69.99,-8.79 70.23,-8.33 70.47,-7.87 70.56,-7.36 70.64,-6.84 70.55,-6.33 70.47,-5.82 70.22,-5.36 69.98,-4.90 69.60,-4.54 69.22,-4.19 68.75,-3.97 68.28,-3.75 67.76,-3.70 67.24,-3.64 66.73,-3.76 66.23,-3.87 65.78,-4.14 65.34,-4.41 65.00,-4.80 64.66,-5.20 64.47,-5.69 64.28,-6.17 64.25,-6.69 64.23,-7.21 64.37,-7.71 64.51,-8.21 64.80,-8.64 65.10,-9.07 65.51,-9.38 65.93,-9.70 66.42,-9.86 66.91,-10.03 67.43,-10.03 67.95,-10.02 68.45,-9.86 68.94,-9.69 69.35,-9.37 69.76,-9.06 70.05,-8.63 70.35,-8.19 70.48,-7.69 70.62,-7.19 70.59,-6.67 70.56,-6.15 70.37,-5.67 70.17,-5.19 69.84,-4.79 69.50,-4.40 69.05,-4.13 68.60,-3.86 68.10,-3.75 67.59,-3.64 67.59,-3.64 67.59,-3.64 66.09,-3.60 64.60,-3.56 62.85,-2.91 61.10,-2.27 59.62,-1.87 58.14,-1.46 56.66,-1.48 55.17,-1.50 54.08,-1.54 52.99,-1.57 51.70,-1.56 50.41,-1.55 48.29,-1.07 46.17,-0.59 44.86,-0.44 43.56,-0.29 41.58,0.19 39.60,0.68 37.63,0.83 35.66,0.98 34.13,1.37 32.61,1.76 31.44,1.77 30.27,1.78 29.10,1.80 27.93,1.81 25.94,1.88 23.96,1.95 22.68,2.35 21.40,2.75 19.42,2.71 17.43,2.66 15.22,2.63 13.02,2.59 11.78,2.58 10.54,2.56 8.27,2.52 5.99,2.47 4.64,2.46 3.28,2.44 1.64,2.48 0,2.52 -0.30,2.49 -0.60,2.45 -0.89,2.34 -1.17,2.23 -1.42,2.06 -1.67,1.89 -1.87,1.66 -2.08,1.43 -2.22,1.16 -2.36,0.89 -2.43,0.60 -2.50,0.30 -2.50,-0.00 -2.50,-0.30 -2.43,-0.60 -2.36,-0.89 -2.22,-1.16 -2.08,-1.43 -1.87,-1.66 -1.67,-1.89 -1.42,-2.06 -1.17,-2.23 -0.88,-2.34 -0.60,-2.45 -0.30,-2.49 0.00,-2.52 0.00,-2.52 L 0,-2.52 Z"></path></g><g transform="translate(180.9070679686247 37.4285888671875) rotate(0 31.42857142857156 -3.4285191127232224)" stroke="none"><path fill="#1e1e1e" d="M 0,-2.13 Q 0,-2.13 1.64,-2.13 3.28,-2.13 4.64,-2.17 5.99,-2.22 7.61,-2.34 9.23,-2.46 11.50,-2.31 13.77,-2.16 15.18,-2.46 16.60,-2.76 18.04,-2.96 19.49,-3.15 21.28,-3.46 23.07,-3.76 24.80,-4.20 26.53,-4.65 28.06,-4.92 29.59,-5.20 31.34,-5.47 33.09,-5.74 34.32,-6.08 35.56,-6.42 37.20,-6.82 38.83,-7.21 40.10,-7.32 41.37,-7.43 42.54,-7.50 43.71,-7.56 44.86,-7.61 46.01,-7.66 47.81,-8.14 49.61,-8.63 51.13,-8.76 52.65,-8.89 53.88,-8.94 55.11,-8.98 56.43,-9.42 57.76,-9.85 60.26,-10.05 62.75,-10.25 63.30,-10.18 63.84,-10.10 64.34,-9.86 64.83,-9.62 65.22,-9.23 65.61,-8.84 65.86,-8.35 66.10,-7.86 66.18,-7.31 66.25,-6.77 66.15,-6.23 66.05,-5.69 65.78,-5.21 65.51,-4.73 65.10,-4.36 64.69,-3.99 64.18,-3.77 63.68,-3.55 63.13,-3.51 62.58,-3.46 62.05,-3.60 61.51,-3.73 61.05,-4.02 60.59,-4.32 60.24,-4.75 59.90,-5.17 59.70,-5.69 59.51,-6.21 59.50,-6.76 59.48,-7.31 59.64,-7.83 59.80,-8.36 60.12,-8.80 60.44,-9.25 60.89,-9.57 61.34,-9.90 61.86,-10.06 62.39,-10.22 62.94,-10.21 63.49,-10.19 64.00,-10.00 64.52,-9.81 64.95,-9.47 65.38,-9.13 65.68,-8.66 65.97,-8.20 66.11,-7.67 66.24,-7.13 66.20,-6.58 66.15,-6.04 65.94,-5.53 65.72,-5.03 65.35,-4.62 64.99,-4.21 64.51,-3.93 64.03,-3.66 63.49,-3.56 62.95,-3.45 62.95,-3.45 62.95,-3.45 61.63,-3.80 60.30,-4.15 59.41,-3.54 58.51,-2.93 56.84,-2.68 55.16,-2.43 54.03,-2.44 52.91,-2.45 51.35,-2.45 49.80,-2.46 48.58,-1.97 47.36,-1.49 46.11,-1.51 44.87,-1.52 43.73,-1.57 42.60,-1.62 41.50,-1.66 40.40,-1.71 39.04,-1.72 37.67,-1.72 35.50,-1.36 33.33,-0.99 31.77,-1.01 30.21,-1.03 28.91,-0.88 27.60,-0.74 25.76,-0.20 23.91,0.34 21.93,0.81 19.95,1.28 18.70,1.37 17.45,1.45 15.62,1.81 13.78,2.16 11.51,2.31 9.23,2.46 7.61,2.34 5.99,2.22 4.64,2.17 3.28,2.13 1.64,2.13 0,2.13 -0.25,2.10 -0.51,2.07 -0.75,1.98 -0.99,1.89 -1.20,1.74 -1.41,1.59 -1.58,1.40 -1.75,1.21 -1.87,0.98 -1.99,0.75 -2.06,0.50 -2.12,0.25 -2.12,-0.00 -2.12,-0.25 -2.05,-0.50 -1.99,-0.75 -1.87,-0.98 -1.75,-1.21 -1.58,-1.40 -1.41,-1.59 -1.20,-1.74 -0.99,-1.89 -0.75,-1.98 -0.51,-2.07 -0.25,-2.10 0.00,-2.13 0.00,-2.13 L 0,-2.13 Z"></path></g><g transform="translate(199.19276481572297 16.857169015066916) rotate(0 -0.5714198521204708 8.000008719308028)" stroke="none"><path fill="#1e1e1e" d="M 2.49,0.62 Q 2.49,0.62 2.16,1.93 1.83,3.24 1.63,4.89 1.43,6.55 1.42,7.65 1.40,8.75 1.46,10.18 1.52,11.62 1.59,13.81 1.65,16.00 1.58,16.45 1.51,16.89 1.29,17.29 1.08,17.69 0.75,18.01 0.42,18.32 0.01,18.51 -0.39,18.70 -0.84,18.74 -1.29,18.79 -1.74,18.69 -2.18,18.60 -2.57,18.36 -2.96,18.13 -3.25,17.78 -3.54,17.44 -3.71,17.01 -3.88,16.59 -3.90,16.14 -3.92,15.69 -3.80,15.25 -3.68,14.81 -3.42,14.44 -3.17,14.06 -2.81,13.79 -2.45,13.52 -2.02,13.37 -1.59,13.23 -1.13,13.23 -0.68,13.23 -0.25,13.38 0.17,13.52 0.53,13.80 0.89,14.07 1.14,14.45 1.40,14.82 1.52,15.26 1.64,15.70 1.61,16.15 1.59,16.60 1.42,17.02 1.25,17.44 0.96,17.79 0.66,18.13 0.27,18.37 -0.10,18.60 -0.55,18.70 -0.99,18.79 -1.44,18.74 -1.89,18.69 -2.30,18.50 -2.71,18.31 -3.04,18.00 -3.37,17.69 -3.58,17.29 -3.79,16.89 -3.87,16.44 -3.94,15.99 -3.94,15.99 -3.94,15.99 -3.86,13.76 -3.78,11.53 -3.64,10.01 -3.51,8.49 -3.41,7.34 -3.31,6.19 -3.23,4.10 -3.15,2.01 -2.82,0.69 -2.49,-0.62 -2.38,-0.91 -2.27,-1.20 -2.09,-1.45 -1.91,-1.70 -1.68,-1.91 -1.45,-2.11 -1.17,-2.26 -0.90,-2.40 -0.60,-2.47 -0.30,-2.55 0.00,-2.54 0.31,-2.54 0.61,-2.47 0.91,-2.39 1.19,-2.25 1.46,-2.10 1.69,-1.90 1.92,-1.69 2.10,-1.44 2.27,-1.18 2.38,-0.89 2.49,-0.60 2.53,-0.29 2.56,0.00 2.53,0.31 2.49,0.62 2.49,0.62 L 2.49,0.62 Z"></path></g><g transform="translate(207.19277353503094 14.57144601004461) rotate(0 0.5714198521205844 9.14287022181918)" stroke="none"><path fill="#1e1e1e" d="M 2.64,0 Q 2.64,0 2.64,1.31 2.64,2.62 2.65,3.84 2.67,5.06 2.72,6.92 2.78,8.78 2.84,10.19 2.91,11.60 3.53,14.80 4.16,18.00 4.13,18.49 4.09,18.98 3.91,19.43 3.72,19.89 3.39,20.25 3.07,20.62 2.64,20.87 2.22,21.12 1.74,21.22 1.26,21.32 0.77,21.26 0.28,21.19 -0.15,20.98 -0.59,20.77 -0.95,20.43 -1.30,20.08 -1.52,19.64 -1.74,19.21 -1.82,18.72 -1.89,18.24 -1.80,17.75 -1.72,17.27 -1.48,16.84 -1.24,16.41 -0.88,16.07 -0.52,15.74 -0.07,15.54 0.37,15.34 0.86,15.30 1.35,15.25 1.83,15.36 2.30,15.48 2.72,15.74 3.14,16.00 3.45,16.38 3.76,16.75 3.94,17.21 4.11,17.67 4.13,18.16 4.15,18.65 4.01,19.13 3.87,19.60 3.59,20.00 3.31,20.40 2.92,20.69 2.52,20.99 2.05,21.14 1.58,21.29 1.09,21.28 0.60,21.27 0.14,21.11 -0.32,20.94 -0.70,20.64 -1.09,20.34 -1.36,19.92 -1.63,19.51 -1.75,19.04 -1.88,18.56 -1.88,18.56 -1.88,18.56 -2.01,17.11 -2.15,15.65 -2.53,13.63 -2.91,11.60 -2.84,10.19 -2.78,8.78 -2.72,6.92 -2.67,5.06 -2.65,3.84 -2.64,2.62 -2.64,1.31 -2.64,0 -2.60,-0.31 -2.56,-0.63 -2.45,-0.93 -2.34,-1.22 -2.16,-1.49 -1.98,-1.75 -1.74,-1.96 -1.50,-2.17 -1.22,-2.32 -0.93,-2.47 -0.62,-2.55 -0.31,-2.62 0.00,-2.62 0.31,-2.62 0.62,-2.55 0.93,-2.47 1.22,-2.32 1.50,-2.17 1.74,-1.96 1.98,-1.75 2.16,-1.49 2.34,-1.22 2.45,-0.93 2.56,-0.63 2.60,-0.31 2.64,0.00 2.64,0.00 L 2.64,0 Z"></path></g><g transform="translate(217.47850525936155 14.57144601004461) rotate(0 0 7.4285888671875)" stroke="none"><path fill="#1e1e1e" d="M 2.48,0 Q 2.48,0 2.44,1.64 2.41,3.28 2.37,4.96 2.34,6.65 2.44,8.47 2.54,10.28 2.63,12.57 2.72,14.85 2.64,15.29 2.57,15.72 2.37,16.11 2.16,16.50 1.84,16.80 1.52,17.10 1.12,17.29 0.72,17.47 0.29,17.52 -0.14,17.57 -0.57,17.47 -1.00,17.38 -1.38,17.15 -1.76,16.93 -2.04,16.59 -2.33,16.25 -2.49,15.85 -2.65,15.44 -2.68,15.00 -2.70,14.56 -2.58,14.13 -2.46,13.71 -2.22,13.35 -1.97,12.98 -1.62,12.71 -1.27,12.45 -0.85,12.31 -0.43,12.17 0.00,12.17 0.44,12.17 0.85,12.31 1.27,12.45 1.62,12.72 1.97,12.98 2.22,13.35 2.46,13.71 2.58,14.13 2.70,14.56 2.68,15.00 2.65,15.44 2.49,15.85 2.33,16.26 2.04,16.59 1.76,16.93 1.38,17.15 1.00,17.38 0.57,17.47 0.14,17.57 -0.29,17.52 -0.72,17.47 -1.12,17.29 -1.52,17.10 -1.84,16.80 -2.16,16.50 -2.37,16.11 -2.57,15.72 -2.64,15.29 -2.72,14.85 -2.72,14.85 -2.72,14.85 -2.63,12.57 -2.54,10.28 -2.44,8.47 -2.34,6.65 -2.37,4.96 -2.41,3.28 -2.44,1.64 -2.48,0 -2.44,-0.29 -2.41,-0.59 -2.30,-0.87 -2.20,-1.15 -2.03,-1.40 -1.86,-1.64 -1.63,-1.84 -1.41,-2.04 -1.14,-2.18 -0.88,-2.32 -0.59,-2.39 -0.29,-2.46 0.00,-2.46 0.29,-2.46 0.59,-2.39 0.88,-2.32 1.14,-2.18 1.41,-2.04 1.63,-1.84 1.86,-1.64 2.03,-1.40 2.20,-1.15 2.30,-0.87 2.41,-0.59 2.44,-0.29 2.48,0.00 2.48,0.00 L 2.48,0 Z"></path></g><g transform="translate(202.62132752498655 56.857169015066916) rotate(0 1.1428615025110958 10.28573172433039)" stroke="none"><path fill="#1e1e1e" d="M 2.61,0 Q 2.61,0 2.56,1.64 2.52,3.28 2.57,5.36 2.63,7.44 3.15,8.66 3.67,9.87 4.31,11.57 4.94,13.27 5.15,14.73 5.35,16.18 5.41,18.37 5.47,20.56 5.39,21.06 5.31,21.57 5.07,22.03 4.83,22.49 4.45,22.84 4.08,23.20 3.61,23.42 3.14,23.64 2.63,23.69 2.12,23.75 1.61,23.64 1.11,23.53 0.67,23.27 0.22,23.00 -0.10,22.61 -0.44,22.22 -0.63,21.74 -0.82,21.26 -0.85,20.75 -0.88,20.23 -0.75,19.73 -0.61,19.24 -0.32,18.81 -0.03,18.38 0.37,18.07 0.78,17.75 1.27,17.59 1.75,17.42 2.27,17.42 2.79,17.42 3.28,17.58 3.77,17.74 4.18,18.05 4.59,18.36 4.88,18.79 5.17,19.22 5.31,19.71 5.45,20.21 5.42,20.73 5.40,21.24 5.21,21.72 5.02,22.20 4.69,22.60 4.35,22.99 3.91,23.26 3.47,23.53 2.97,23.64 2.46,23.75 1.95,23.70 1.44,23.64 0.97,23.43 0.50,23.21 0.12,22.86 -0.24,22.51 -0.49,22.05 -0.73,21.59 -0.81,21.09 -0.90,20.58 -0.90,20.58 -0.90,20.58 -0.88,18.53 -0.86,16.48 -1.11,15.14 -1.37,13.80 -1.61,11.97 -1.86,10.14 -2.24,8.87 -2.63,7.60 -2.57,5.44 -2.52,3.28 -2.56,1.64 -2.61,0 -2.58,-0.31 -2.54,-0.62 -2.43,-0.92 -2.31,-1.21 -2.13,-1.47 -1.95,-1.73 -1.72,-1.94 -1.48,-2.15 -1.20,-2.30 -0.92,-2.44 -0.62,-2.52 -0.31,-2.59 0.00,-2.59 0.31,-2.59 0.62,-2.52 0.92,-2.44 1.20,-2.30 1.48,-2.15 1.72,-1.94 1.96,-1.73 2.13,-1.47 2.31,-1.21 2.43,-0.92 2.54,-0.62 2.58,-0.31 2.61,0.00 2.61,0.00 L 2.61,0 Z"></path></g><g transform="translate(211.76421954507578 55.71432931082586) rotate(0 1.7142813546316802 11.428571428571445)" stroke="none"><path fill="#1e1e1e" d="M 2.64,0 Q 2.64,0 2.64,1.31 2.64,2.62 2.65,3.81 2.65,4.99 3.17,6.28 3.68,7.57 3.79,8.70 3.90,9.84 3.98,11.62 4.06,13.39 4.46,14.78 4.87,16.18 5.67,17.77 6.48,19.37 6.56,21.07 6.64,22.78 6.57,23.30 6.50,23.81 6.26,24.28 6.03,24.74 5.66,25.11 5.29,25.48 4.82,25.71 4.35,25.94 3.84,26.00 3.32,26.07 2.81,25.97 2.30,25.87 1.85,25.61 1.39,25.35 1.05,24.96 0.70,24.57 0.50,24.09 0.29,23.61 0.25,23.10 0.21,22.58 0.34,22.07 0.47,21.57 0.75,21.13 1.04,20.69 1.44,20.37 1.85,20.04 2.34,19.86 2.83,19.69 3.35,19.67 3.87,19.66 4.37,19.82 4.87,19.97 5.29,20.28 5.71,20.59 6.01,21.01 6.32,21.44 6.47,21.93 6.62,22.43 6.60,22.95 6.58,23.47 6.40,23.96 6.22,24.45 5.89,24.86 5.56,25.26 5.12,25.54 4.68,25.82 4.18,25.94 3.67,26.06 3.15,26.02 2.63,25.97 2.15,25.77 1.68,25.56 1.29,25.21 0.90,24.86 0.65,24.40 0.40,23.95 0.30,23.44 0.20,22.92 0.20,22.92 0.20,22.92 0.45,21.44 0.69,19.96 0.11,18.68 -0.46,17.40 -1.01,16.49 -1.56,15.58 -1.68,14.51 -1.81,13.45 -1.80,11.83 -1.79,10.20 -1.84,8.96 -1.89,7.73 -2.27,6.43 -2.65,5.12 -2.65,3.87 -2.64,2.62 -2.64,1.31 -2.64,0 -2.60,-0.31 -2.56,-0.63 -2.45,-0.93 -2.34,-1.22 -2.16,-1.49 -1.97,-1.75 -1.74,-1.96 -1.50,-2.17 -1.21,-2.32 -0.93,-2.47 -0.62,-2.54 -0.31,-2.62 0.00,-2.62 0.31,-2.62 0.62,-2.54 0.93,-2.47 1.22,-2.32 1.50,-2.17 1.74,-1.96 1.97,-1.75 2.16,-1.49 2.34,-1.22 2.45,-0.93 2.56,-0.63 2.60,-0.31 2.64,0.00 2.64,0.00 L 2.64,0 Z"></path></g><g transform="translate(219.76418466784344 52.2857666015625) rotate(0 4.571446010044724 12.000013078962013)" stroke="none"><path fill="#1e1e1e" d="M 2.41,-0.96 Q 2.41,-0.96 3.00,0.70 3.59,2.37 3.95,3.52 4.31,4.67 5.02,6.58 5.74,8.49 5.77,9.63 5.79,10.77 6.60,12.19 7.40,13.60 8.13,14.66 8.86,15.71 9.25,16.71 9.63,17.70 10.91,20.25 12.19,22.79 12.30,23.31 12.42,23.83 12.36,24.36 12.30,24.89 12.07,25.37 11.85,25.85 11.48,26.23 11.11,26.62 10.64,26.86 10.17,27.11 9.65,27.19 9.12,27.28 8.60,27.19 8.08,27.10 7.61,26.85 7.14,26.60 6.78,26.21 6.41,25.82 6.19,25.34 5.97,24.86 5.92,24.33 5.86,23.80 5.98,23.28 6.09,22.77 6.37,22.31 6.65,21.86 7.05,21.52 7.46,21.17 7.95,20.98 8.45,20.79 8.98,20.76 9.51,20.73 10.02,20.88 10.53,21.02 10.97,21.32 11.41,21.62 11.73,22.05 12.05,22.47 12.21,22.98 12.38,23.48 12.38,24.01 12.37,24.54 12.20,25.04 12.03,25.55 11.71,25.97 11.38,26.39 10.94,26.68 10.50,26.98 9.99,27.12 9.48,27.26 8.95,27.23 8.42,27.20 7.92,27.00 7.43,26.80 7.03,26.45 6.63,26.11 6.35,25.65 6.08,25.20 6.08,25.20 6.08,25.20 5.84,24.60 5.60,24.00 4.85,22.98 4.10,21.96 3.89,20.57 3.69,19.17 3.15,17.98 2.62,16.80 2.38,15.51 2.15,14.23 1.36,12.50 0.58,10.77 0.48,9.63 0.37,8.49 -0.29,6.34 -0.96,4.19 -1.68,2.57 -2.41,0.96 -2.49,0.66 -2.57,0.35 -2.57,0.04 -2.58,-0.26 -2.51,-0.57 -2.44,-0.87 -2.30,-1.15 -2.16,-1.43 -1.95,-1.67 -1.75,-1.91 -1.50,-2.09 -1.24,-2.27 -0.95,-2.39 -0.66,-2.50 -0.35,-2.55 -0.04,-2.59 0.26,-2.56 0.57,-2.53 0.87,-2.42 1.16,-2.32 1.42,-2.14 1.68,-1.97 1.89,-1.74 2.10,-1.51 2.26,-1.23 2.41,-0.96 2.41,-0.96 L 2.41,-0.96 Z"></path></g><g transform="translate(230.04991639217405 18.000052315848166) rotate(0 -6.857147216796875 5.714285714285722)" stroke="none"><path fill="#1e1e1e" d="M 1.17,2.35 Q 1.17,2.35 -0.14,2.98 -1.46,3.62 -3.05,4.52 -4.63,5.41 -5.33,6.68 -6.03,7.94 -6.69,9.10 -7.34,10.25 -8.35,10.95 -9.35,11.64 -10.81,12.95 -12.26,14.26 -12.76,14.42 -13.25,14.57 -13.76,14.57 -14.28,14.56 -14.76,14.38 -15.25,14.21 -15.65,13.89 -16.06,13.58 -16.34,13.14 -16.62,12.71 -16.75,12.21 -16.88,11.72 -16.84,11.20 -16.81,10.69 -16.61,10.21 -16.41,9.74 -16.07,9.35 -15.73,8.96 -15.28,8.70 -14.84,8.45 -14.33,8.34 -13.83,8.24 -13.32,8.31 -12.81,8.37 -12.34,8.59 -11.88,8.82 -11.51,9.18 -11.14,9.54 -10.91,10.00 -10.67,10.46 -10.60,10.97 -10.52,11.48 -10.62,11.98 -10.71,12.49 -10.96,12.94 -11.21,13.39 -11.59,13.74 -11.97,14.09 -12.44,14.30 -12.91,14.51 -13.42,14.55 -13.94,14.60 -14.44,14.48 -14.94,14.36 -15.37,14.09 -15.81,13.82 -16.14,13.42 -16.47,13.02 -16.65,12.54 -16.83,12.06 -16.85,11.54 -16.87,11.03 -16.72,10.53 -16.58,10.04 -16.28,9.62 -15.98,9.19 -15.57,8.89 -15.15,8.58 -15.15,8.59 -15.15,8.59 -13.32,6.73 -11.48,4.87 -10.11,3.63 -8.74,2.40 -7.31,1.36 -5.88,0.33 -4.83,-0.33 -3.78,-0.99 -2.48,-1.67 -1.17,-2.35 -0.87,-2.45 -0.57,-2.56 -0.26,-2.59 0.05,-2.62 0.36,-2.58 0.67,-2.53 0.97,-2.42 1.26,-2.30 1.52,-2.11 1.78,-1.93 1.98,-1.69 2.19,-1.45 2.33,-1.16 2.47,-0.88 2.54,-0.57 2.61,-0.26 2.60,0.05 2.60,0.36 2.52,0.67 2.43,0.98 2.28,1.25 2.13,1.53 1.91,1.76 1.70,2.00 1.43,2.17 1.17,2.35 1.17,2.35 L 1.17,2.35 Z"></path></g><g transform="translate(241.47848782074539 66.00001743861606) rotate(0 -8.000008719308084 -5.142844063895097)" stroke="none"><path fill="#1e1e1e" d="M -1.51,2.02 Q -1.51,2.02 -2.80,1.00 -4.09,-0.01 -5.54,-1.12 -7.00,-2.24 -8.09,-2.56 -9.18,-2.88 -10.12,-3.57 -11.07,-4.26 -12.77,-4.79 -14.48,-5.31 -15.80,-6.49 -17.13,-7.67 -17.52,-7.92 -17.90,-8.17 -18.19,-8.53 -18.48,-8.89 -18.64,-9.32 -18.79,-9.76 -18.80,-10.22 -18.81,-10.68 -18.68,-11.12 -18.54,-11.56 -18.27,-11.93 -18.00,-12.30 -17.62,-12.57 -17.25,-12.84 -16.81,-12.97 -16.37,-13.10 -15.91,-13.09 -15.45,-13.07 -15.02,-12.91 -14.58,-12.75 -14.23,-12.46 -13.87,-12.17 -13.62,-11.78 -13.38,-11.39 -13.27,-10.95 -13.16,-10.50 -13.20,-10.04 -13.24,-9.58 -13.42,-9.16 -13.60,-8.74 -13.91,-8.40 -14.22,-8.05 -14.62,-7.83 -15.03,-7.60 -15.48,-7.52 -15.93,-7.44 -16.39,-7.50 -16.84,-7.56 -17.25,-7.77 -17.67,-7.98 -17.99,-8.30 -18.31,-8.63 -18.52,-9.04 -18.72,-9.46 -18.78,-9.91 -18.84,-10.37 -18.75,-10.82 -18.66,-11.27 -18.43,-11.67 -18.21,-12.07 -17.86,-12.38 -17.52,-12.69 -17.09,-12.87 -16.67,-13.05 -16.21,-13.08 -15.75,-13.12 -15.30,-13.00 -14.86,-12.89 -14.86,-12.89 -14.86,-12.89 -12.26,-10.89 -9.67,-8.90 -8.58,-8.04 -7.50,-7.19 -5.97,-6.60 -4.43,-6.00 -2.79,-4.96 -1.16,-3.92 0.17,-2.97 1.51,-2.02 1.73,-1.80 1.95,-1.59 2.11,-1.34 2.28,-1.08 2.37,-0.79 2.47,-0.50 2.49,-0.20 2.52,0.09 2.47,0.39 2.42,0.70 2.30,0.98 2.18,1.26 2.00,1.50 1.82,1.74 1.58,1.94 1.35,2.13 1.07,2.26 0.80,2.39 0.50,2.45 0.20,2.51 -0.09,2.50 -0.40,2.49 -0.69,2.40 -0.98,2.32 -1.25,2.17 -1.51,2.02 -1.51,2.02 L -1.51,2.02 Z"></path></g><g transform="translate(190.04991639217405 69.42862374441961) rotate(0 4.000004359653985 -4.571446010044667)" stroke="none"><path fill="#1e1e1e" d="M -2.12,-1.27 Q -2.12,-1.27 -1.05,-2.87 0.02,-4.48 0.92,-5.45 1.81,-6.42 4.35,-8.93 6.88,-11.43 7.27,-11.55 7.67,-11.67 8.08,-11.65 8.49,-11.64 8.88,-11.49 9.27,-11.35 9.59,-11.09 9.91,-10.83 10.13,-10.48 10.35,-10.13 10.44,-9.73 10.54,-9.33 10.50,-8.91 10.47,-8.50 10.30,-8.13 10.13,-7.75 9.86,-7.44 9.58,-7.14 9.22,-6.94 8.86,-6.74 8.45,-6.66 8.04,-6.59 7.64,-6.65 7.23,-6.70 6.86,-6.89 6.49,-7.08 6.20,-7.37 5.91,-7.67 5.73,-8.04 5.55,-8.41 5.50,-8.82 5.45,-9.23 5.53,-9.63 5.61,-10.04 5.81,-10.39 6.02,-10.75 6.33,-11.03 6.64,-11.30 7.02,-11.46 7.40,-11.62 7.81,-11.65 8.22,-11.68 8.62,-11.58 9.02,-11.47 9.37,-11.25 9.71,-11.02 9.97,-10.70 10.23,-10.38 10.37,-9.99 10.50,-9.60 10.51,-9.19 10.52,-8.77 10.40,-8.38 10.27,-7.99 10.03,-7.65 9.78,-7.32 9.45,-7.08 9.11,-6.84 9.11,-6.84 9.11,-6.84 7.93,-6.00 6.75,-5.15 5.34,-3.62 3.92,-2.08 3.02,-0.40 2.12,1.27 1.94,1.51 1.75,1.74 1.52,1.93 1.28,2.11 1.01,2.24 0.74,2.36 0.45,2.41 0.15,2.47 -0.14,2.45 -0.43,2.43 -0.72,2.35 -1.00,2.26 -1.26,2.10 -1.52,1.95 -1.73,1.74 -1.94,1.53 -2.10,1.27 -2.25,1.02 -2.34,0.73 -2.43,0.45 -2.45,0.15 -2.47,-0.14 -2.42,-0.43 -2.36,-0.72 -2.24,-1.00 -2.12,-1.27 -2.12,-1.27 L -2.12,-1.27 Z"></path></g><g transform="translate(187.76419338715164 26.000017438616055) rotate(0 3.428584507533401 3.428584507533458)" stroke="none"><path fill="#1e1e1e" d="M 2.00,-1.33 Q 2.00,-1.33 2.69,-0.37 3.37,0.59 4.26,1.26 5.14,1.94 6.20,2.59 7.26,3.23 7.13,3.33 7.00,3.43 7.34,3.52 7.68,3.62 7.98,3.80 8.29,3.98 8.54,4.22 8.80,4.46 8.99,4.76 9.17,5.06 9.29,5.40 9.40,5.73 9.43,6.08 9.45,6.43 9.40,6.78 9.34,7.13 9.20,7.45 9.06,7.78 8.85,8.06 8.64,8.34 8.37,8.57 8.09,8.79 7.77,8.94 7.45,9.09 7.11,9.16 6.76,9.23 6.41,9.22 6.06,9.20 2.16,5.49 -1.72,1.78 -1.96,1.46 -2.20,1.14 -2.32,0.75 -2.45,0.37 -2.45,-0.02 -2.44,-0.42 -2.31,-0.80 -2.18,-1.18 -1.93,-1.50 -1.68,-1.82 -1.35,-2.04 -1.01,-2.26 -0.63,-2.36 -0.24,-2.47 0.15,-2.44 0.55,-2.41 0.93,-2.26 1.30,-2.11 1.60,-1.85 1.90,-1.58 2.11,-1.24 2.31,-0.89 2.39,-0.50 2.48,-0.10 2.43,0.29 2.38,0.68 2.21,1.05 2.04,1.41 1.76,1.70 1.48,1.99 1.12,2.17 0.76,2.36 0.37,2.42 -0.02,2.48 -0.42,2.41 -0.81,2.34 -1.17,2.15 -1.52,1.96 -1.79,1.66 -2.06,1.37 -2.23,1.00 -2.39,0.63 -2.43,0.23 -2.47,-0.16 -2.38,-0.55 -2.29,-0.94 -2.08,-1.28 -1.87,-1.62 -1.56,-1.88 -1.25,-2.14 -0.88,-2.28 -0.50,-2.43 -0.10,-2.44 0.29,-2.46 0.68,-2.35 1.06,-2.24 1.39,-2.01 1.72,-1.78 1.72,-1.78 1.72,-1.78 4.36,0.82 7.00,3.43 7.34,3.52 7.68,3.62 7.98,3.80 8.29,3.98 8.54,4.22 8.80,4.46 8.99,4.76 9.17,5.06 9.29,5.40 9.40,5.73 9.43,6.08 9.45,6.43 9.40,6.78 9.34,7.13 9.20,7.45 9.06,7.78 8.85,8.06 8.64,8.34 8.37,8.56 8.09,8.79 7.77,8.94 7.45,9.09 7.11,9.16 6.76,9.23 6.41,9.22 6.06,9.20 5.00,8.59 3.93,7.98 2.26,6.56 0.59,5.13 -0.07,4.24 -0.74,3.34 -1.37,2.34 -2.00,1.33 -2.13,1.07 -2.26,0.81 -2.33,0.53 -2.39,0.25 -2.39,-0.03 -2.39,-0.32 -2.31,-0.61 -2.24,-0.89 -2.10,-1.14 -1.96,-1.40 -1.76,-1.61 -1.57,-1.83 -1.32,-1.99 -1.08,-2.15 -0.81,-2.25 -0.53,-2.35 -0.25,-2.38 0.03,-2.41 0.32,-2.37 0.61,-2.33 0.88,-2.22 1.15,-2.11 1.39,-1.94 1.62,-1.77 1.81,-1.55 2.00,-1.33 2.00,-1.33 L 2.00,-1.33 Z"></path></g><g transform="translate(249.47849654005336 51.14288330078125) rotate(0 345.7142857142858 19.428580147879472)" stroke="none"><path fill="#1e1e1e" d="M 2.33,-0.93 Q 2.33,-0.93 2.93,0.73 3.53,2.40 3.89,3.53 4.25,4.66 5.42,6.85 6.59,9.04 7.05,10.20 7.52,11.36 8.31,12.80 9.10,14.24 9.77,15.44 10.45,16.63 11.77,17.75 13.09,18.87 14.38,20.29 15.66,21.72 17.39,22.72 19.11,23.73 20.06,24.46 21.01,25.19 22.70,25.82 24.39,26.46 25.80,27.02 27.22,27.59 28.64,28.09 30.07,28.60 31.52,29.16 32.98,29.73 34.57,30.35 36.16,30.97 37.58,31.58 39.00,32.18 41.02,32.40 43.05,32.62 45.44,33.03 47.83,33.44 49.97,33.59 52.11,33.74 53.90,33.73 55.68,33.71 57.08,33.75 58.48,33.78 60.07,33.84 61.65,33.89 62.98,33.90 64.31,33.90 66.19,34.01 68.07,34.11 69.20,34.08 70.34,34.04 72.34,34.47 74.34,34.89 75.97,35.06 77.59,35.23 79.59,35.40 81.58,35.56 83.43,35.62 85.27,35.68 87.04,35.70 88.81,35.72 90.22,35.67 91.63,35.62 93.94,35.52 96.24,35.42 97.48,35.38 98.73,35.35 99.91,35.31 101.10,35.27 102.94,35.18 104.79,35.09 105.87,35.07 106.96,35.04 108.08,35.02 109.20,35.00 110.33,34.99 111.46,34.97 112.93,35.00 114.40,35.03 116.01,35.08 117.62,35.13 119.29,35.18 120.96,35.23 122.32,35.22 123.69,35.21 124.93,35.19 126.16,35.17 127.35,35.14 128.53,35.12 129.66,35.11 130.78,35.09 132.45,34.57 134.13,34.04 135.78,33.76 137.43,33.49 139.32,33.36 141.21,33.23 143.00,33.20 144.79,33.18 146.20,33.13 147.61,33.08 149.21,32.71 150.81,32.33 153.40,31.98 155.99,31.63 157.97,31.23 159.94,30.82 161.91,30.60 163.89,30.38 165.03,30.20 166.17,30.03 167.67,29.96 169.17,29.88 171.06,29.28 172.95,28.68 175.19,28.52 177.43,28.35 178.66,28.32 179.89,28.29 181.43,28.20 182.97,28.11 184.58,28.16 186.19,28.22 187.53,28.22 188.87,28.22 190.10,28.21 191.32,28.20 193.16,28.29 195.00,28.38 196.10,28.35 197.21,28.31 199.00,28.38 200.78,28.45 202.20,28.44 203.62,28.43 204.88,28.41 206.13,28.38 208.68,28.38 211.22,28.39 213.70,28.35 216.17,28.32 217.43,28.30 218.70,28.29 220.92,28.25 223.14,28.21 224.70,28.25 226.26,28.28 227.58,28.28 228.90,28.27 230.45,28.30 231.99,28.33 233.31,28.32 234.62,28.31 235.84,28.29 237.05,28.27 239.25,28.23 241.44,28.19 243.32,28.30 245.21,28.41 246.67,28.41 248.13,28.41 250.25,28.85 252.37,29.30 253.77,29.41 255.16,29.53 256.40,29.55 257.63,29.57 258.81,29.55 259.98,29.54 262.44,29.87 264.90,30.19 265.97,30.28 267.05,30.38 268.14,30.41 269.24,30.44 271.35,30.44 273.47,30.44 274.69,30.44 275.91,30.44 277.08,30.43 278.26,30.42 279.42,30.41 280.58,30.40 282.61,30.85 284.64,31.30 285.96,31.43 287.28,31.56 288.81,31.65 290.34,31.74 291.70,32.12 293.05,32.50 294.19,32.59 295.33,32.68 296.83,33.12 298.32,33.55 299.92,33.66 301.52,33.77 303.22,33.88 304.91,33.99 306.34,34.36 307.76,34.73 308.94,34.83 310.12,34.94 311.33,34.98 312.53,35.03 314.70,35.03 316.87,35.03 318.10,35.03 319.33,35.02 320.50,35.01 321.68,35.00 324.18,35.04 326.67,35.07 329.03,35.24 331.38,35.41 333.69,35.54 336.00,35.67 337.32,35.61 338.63,35.56 340.83,35.67 343.03,35.78 344.95,35.81 346.88,35.84 348.56,36.15 350.24,36.45 351.73,36.55 353.21,36.64 355.15,36.76 357.10,36.88 358.92,36.91 360.74,36.94 362.82,37.02 364.91,37.10 366.45,37.04 368.00,36.99 369.31,36.92 370.63,36.85 373.53,36.86 376.44,36.86 377.95,36.83 379.47,36.79 380.77,36.74 382.07,36.68 383.61,36.67 385.15,36.66 387.21,36.54 389.26,36.43 390.38,36.39 391.49,36.35 392.95,36.36 394.41,36.36 396.75,36.32 399.08,36.28 400.99,36.38 402.89,36.48 404.36,36.48 405.83,36.47 407.11,36.45 408.39,36.42 410.24,36.50 412.09,36.57 413.29,36.26 414.49,35.95 415.89,35.75 417.28,35.56 419.61,35.40 421.95,35.25 423.58,35.14 425.21,35.04 426.77,34.97 428.34,34.90 430.03,34.85 431.71,34.80 432.78,34.80 433.85,34.79 435.29,34.74 436.73,34.69 438.73,34.68 440.72,34.68 443.14,34.75 445.55,34.82 446.98,34.61 448.42,34.39 449.91,34.25 451.41,34.11 453.40,34.15 455.40,34.20 456.54,34.14 457.69,34.08 460.37,33.90 463.04,33.73 465.28,33.70 467.52,33.66 470.01,33.37 472.51,33.08 474.30,32.89 476.10,32.70 478.08,32.37 480.06,32.05 481.86,31.57 483.66,31.09 485.20,30.79 486.73,30.48 488.83,30.18 490.92,29.88 492.39,29.84 493.85,29.79 496.18,29.70 498.51,29.61 499.76,29.58 501.01,29.55 503.22,29.49 505.43,29.44 506.99,29.47 508.55,29.49 510.20,29.53 511.84,29.57 513.64,29.48 515.43,29.39 518.34,29.52 521.24,29.65 523.18,29.74 525.12,29.82 526.61,29.80 528.09,29.78 531.02,29.90 533.95,30.02 536.51,30.11 539.07,30.19 540.48,30.13 541.90,30.06 543.82,30.09 545.73,30.12 547.53,30.12 549.33,30.12 551.74,30.20 554.15,30.27 556.16,30.30 558.17,30.32 559.35,30.23 560.53,30.13 562.68,30.20 564.82,30.28 566.39,30.22 567.96,30.16 570.27,30.23 572.58,30.30 573.89,30.22 575.20,30.13 577.40,30.20 579.60,30.28 580.86,30.19 582.13,30.10 584.31,30.18 586.49,30.26 588.07,30.21 589.65,30.15 591.64,30.19 593.63,30.23 595.46,30.22 597.29,30.21 599.38,30.27 601.47,30.32 602.69,30.23 603.91,30.13 605.08,30.05 606.26,29.97 608.07,29.99 609.89,30.01 611.31,29.96 612.74,29.91 614.33,29.90 615.93,29.88 618.02,29.76 620.11,29.64 621.22,29.59 622.34,29.55 623.47,29.51 624.61,29.48 626.75,29.43 628.89,29.38 630.11,29.37 631.33,29.35 633.53,29.33 635.72,29.30 638.32,29.34 640.91,29.38 642.29,29.39 643.67,29.39 645.57,29.49 647.47,29.60 648.94,29.60 650.40,29.59 652.09,29.49 653.77,29.40 655.77,29.34 657.76,29.29 659.38,28.78 661.00,28.26 662.54,28.22 664.08,28.17 665.77,28.08 667.46,27.98 668.71,27.92 669.96,27.86 671.45,27.82 672.94,27.79 674.76,27.77 676.57,27.76 678.30,27.74 680.03,27.73 681.61,27.71 683.19,27.69 684.88,27.68 686.57,27.67 689.00,27.66 691.42,27.64 691.94,27.72 692.45,27.81 692.91,28.05 693.37,28.29 693.73,28.67 694.08,29.05 694.30,29.52 694.52,29.99 694.57,30.51 694.63,31.03 694.52,31.53 694.41,32.04 694.14,32.49 693.87,32.93 693.48,33.27 693.08,33.60 692.60,33.80 692.11,33.99 691.59,34.02 691.08,34.05 690.58,33.91 690.07,33.77 689.64,33.48 689.21,33.18 688.90,32.77 688.59,32.36 688.42,31.86 688.25,31.37 688.25,30.85 688.25,30.33 688.42,29.84 688.59,29.35 688.90,28.93 689.21,28.52 689.65,28.23 690.08,27.94 690.58,27.80 691.08,27.66 691.60,27.69 692.11,27.72 692.60,27.91 693.08,28.10 693.48,28.44 693.87,28.77 694.14,29.22 694.41,29.66 694.52,30.17 694.63,30.68 694.57,31.20 694.52,31.71 694.30,32.18 694.08,32.66 693.72,33.03 693.37,33.41 692.91,33.65 692.45,33.90 691.94,33.98 691.42,34.06 691.42,34.06 691.42,34.06 689.00,34.05 686.57,34.03 684.88,34.02 683.19,34.01 681.61,33.99 680.03,33.98 678.30,33.96 676.57,33.94 674.76,33.93 672.94,33.92 671.46,33.88 669.98,33.85 668.76,33.80 667.54,33.75 665.93,33.73 664.32,33.71 662.39,33.81 660.46,33.91 659.19,34.30 657.93,34.70 655.85,34.65 653.77,34.59 652.09,34.50 650.40,34.40 648.94,34.39 647.47,34.39 645.57,34.50 643.67,34.60 642.29,34.60 640.91,34.61 638.32,34.65 635.72,34.69 633.53,34.66 631.33,34.64 630.11,34.62 628.89,34.61 626.75,34.56 624.61,34.51 623.47,34.48 622.34,34.44 621.22,34.40 620.11,34.35 618.02,34.23 615.93,34.11 614.33,34.09 612.74,34.08 611.31,34.03 609.89,33.98 608.07,34.00 606.26,34.02 605.08,33.94 603.91,33.86 602.69,33.76 601.47,33.67 599.38,33.72 597.29,33.78 595.46,33.77 593.63,33.77 591.64,33.80 589.65,33.84 588.07,33.78 586.49,33.73 584.31,33.81 582.13,33.89 580.86,33.80 579.60,33.71 577.40,33.79 575.20,33.86 573.89,33.77 572.58,33.69 570.27,33.76 567.96,33.83 566.39,33.77 564.82,33.71 562.68,33.79 560.53,33.86 559.35,33.76 558.17,33.67 556.16,33.69 554.15,33.72 551.74,33.79 549.33,33.87 547.53,33.87 545.73,33.87 543.82,33.90 541.90,33.93 540.48,33.86 539.07,33.80 536.51,33.88 533.95,33.97 531.02,34.09 528.09,34.21 526.61,34.19 525.12,34.17 523.18,34.25 521.24,34.34 518.34,34.47 515.43,34.60 513.64,34.51 511.84,34.42 510.20,34.46 508.55,34.50 506.99,34.52 505.43,34.55 503.22,34.50 501.01,34.45 499.77,34.42 498.52,34.39 496.21,34.32 493.90,34.25 492.49,34.23 491.08,34.22 489.17,34.18 487.26,34.13 485.90,34.25 484.54,34.37 482.63,34.89 480.71,35.41 478.58,35.88 476.44,36.35 474.74,36.49 473.05,36.64 470.41,37.12 467.78,37.61 465.68,37.87 463.58,38.12 460.69,38.63 457.80,39.13 456.68,39.12 455.55,39.11 453.75,39.28 451.95,39.44 450.70,39.58 449.45,39.71 447.51,40.15 445.57,40.60 443.15,40.67 440.72,40.74 438.73,40.73 436.73,40.73 435.29,40.68 433.85,40.63 432.78,40.62 431.71,40.62 430.03,40.57 428.34,40.52 426.79,40.46 425.24,40.39 423.64,40.32 422.04,40.25 419.92,40.26 417.80,40.27 416.65,40.36 415.51,40.44 413.81,40.79 412.12,41.13 410.25,41.21 408.39,41.28 407.11,41.26 405.83,41.23 404.36,41.22 402.89,41.22 400.99,41.32 399.08,41.42 396.75,41.38 394.41,41.34 392.95,41.35 391.49,41.35 390.38,41.31 389.26,41.27 387.21,41.16 385.15,41.05 383.61,41.03 382.07,41.02 380.77,40.97 379.47,40.91 377.95,40.88 376.44,40.84 373.53,40.84 370.62,40.85 369.30,40.77 367.99,40.70 366.44,40.64 364.89,40.58 362.79,40.63 360.68,40.69 358.83,40.67 356.98,40.65 354.93,40.65 352.87,40.65 351.13,40.47 349.39,40.28 348.13,39.93 346.86,39.57 344.94,39.61 343.03,39.64 340.83,39.75 338.63,39.86 337.32,39.80 336.00,39.75 333.69,39.88 331.38,40.01 329.02,40.18 326.67,40.34 324.17,40.38 321.67,40.41 320.49,40.40 319.31,40.38 318.07,40.37 316.83,40.35 314.55,40.28 312.28,40.21 310.94,40.13 309.61,40.05 307.19,39.55 304.76,39.06 302.96,39.10 301.15,39.15 298.98,38.79 296.81,38.42 295.79,38.07 294.77,37.72 292.43,37.18 290.09,36.65 288.44,36.62 286.79,36.59 285.26,36.44 283.73,36.29 282.14,36.08 280.56,35.88 279.40,35.87 278.25,35.85 277.07,35.84 275.89,35.83 274.66,35.81 273.42,35.80 271.20,35.73 268.98,35.66 267.72,35.57 266.46,35.48 265.07,35.29 263.69,35.10 261.78,34.74 259.88,34.38 258.65,34.31 257.41,34.25 256.08,34.15 254.74,34.05 253.18,33.88 251.62,33.72 249.87,33.51 248.12,33.30 246.66,33.30 245.21,33.30 243.32,33.40 241.44,33.51 239.25,33.47 237.05,33.44 235.84,33.42 234.62,33.40 233.31,33.39 231.99,33.38 230.45,33.41 228.90,33.43 227.58,33.43 226.26,33.42 224.70,33.46 223.14,33.49 220.92,33.45 218.70,33.42 217.43,33.40 216.17,33.39 213.70,33.35 211.22,33.32 208.68,33.32 206.13,33.32 204.88,33.30 203.62,33.27 202.20,33.26 200.78,33.25 199.00,33.32 197.21,33.39 196.10,33.36 195.00,33.32 193.16,33.41 191.32,33.51 190.10,33.50 188.87,33.48 187.53,33.49 186.19,33.49 184.59,33.54 182.99,33.60 181.46,33.52 179.93,33.45 178.73,33.44 177.53,33.43 176.29,33.44 175.04,33.45 173.49,33.49 171.94,33.53 170.65,33.88 169.36,34.23 167.95,34.24 166.53,34.25 165.45,34.26 164.37,34.28 162.66,34.51 160.96,34.73 158.91,35.38 156.85,36.03 154.61,36.62 152.37,37.22 150.04,37.54 147.71,37.85 146.34,37.87 144.98,37.88 143.33,37.99 141.68,38.10 140.11,38.31 138.55,38.51 136.01,39.04 133.48,39.57 132.20,39.95 130.92,40.33 129.73,40.31 128.53,40.30 127.35,40.27 126.16,40.25 124.93,40.23 123.69,40.21 122.32,40.20 120.96,40.19 119.29,40.24 117.62,40.29 116.01,40.34 114.40,40.39 112.93,40.42 111.46,40.45 110.33,40.43 109.20,40.42 108.08,40.40 106.96,40.38 105.87,40.35 104.79,40.33 102.94,40.24 101.10,40.15 99.91,40.11 98.73,40.07 97.48,40.03 96.24,39.99 93.93,39.89 91.62,39.78 90.20,39.73 88.79,39.67 87.00,39.67 85.22,39.67 83.34,39.68 81.47,39.68 79.35,39.73 77.23,39.77 75.36,39.66 73.49,39.55 71.90,39.32 70.32,39.09 69.20,39.05 68.07,39.02 66.19,39.12 64.31,39.23 62.98,39.23 61.65,39.23 60.06,39.29 58.47,39.34 57.04,39.36 55.61,39.39 53.72,39.30 51.82,39.20 50.56,39.12 49.29,39.04 47.89,38.86 46.48,38.67 44.54,38.30 42.60,37.93 41.28,37.79 39.97,37.65 38.49,37.33 37.01,37.01 35.74,36.50 34.47,35.99 32.82,35.52 31.17,35.05 28.67,34.25 26.18,33.46 24.31,33.00 22.45,32.54 21.48,31.77 20.52,31.00 18.24,29.88 15.96,28.76 14.80,28.11 13.64,27.45 11.94,26.25 10.25,25.04 9.21,23.37 8.17,21.70 7.27,21.13 6.37,20.56 5.36,18.89 4.36,17.21 4.16,16.14 3.95,15.08 3.14,13.16 2.32,11.24 1.43,9.70 0.54,8.16 -0.17,6.16 -0.90,4.17 -1.62,2.55 -2.33,0.93 -2.41,0.64 -2.49,0.34 -2.49,0.04 -2.50,-0.25 -2.43,-0.55 -2.37,-0.85 -2.23,-1.12 -2.09,-1.39 -1.90,-1.62 -1.70,-1.85 -1.45,-2.03 -1.21,-2.20 -0.92,-2.32 -0.64,-2.43 -0.34,-2.47 -0.04,-2.51 0.25,-2.48 0.55,-2.45 0.84,-2.35 1.13,-2.25 1.38,-2.08 1.63,-1.91 1.84,-1.69 2.04,-1.46 2.19,-1.20 2.33,-0.93 2.33,-0.93 L 2.33,-0.93 Z"></path></g></svg>